<svg width="47" height="47" viewBox="0 0 47 47" fill="none" xmlns="http://www.w3.org/2000/svg">

<mask id="path-1-inside-1_77_2266" fill="white">
<path d="M0 16C0 7.16346 7.16344 0 16 0H30.6667C39.5032 0 46.6667 7.16344 46.6667 16V30.6667C46.6667 39.5032 39.5032 46.6667 30.6667 46.6667H16C7.16346 46.6667 0 39.5032 0 30.6667V16Z"/>
</mask>


<path d="M0 16C0 7.16346 7.16344 0 16 0H30.6667C39.5032 0 46.6667 7.16344 46.6667 16V30.6667C46.6667 39.5032 39.5032 46.6667 30.6667 46.6667H16C7.16346 46.6667 0 39.5032 0 30.6667V16Z" fill="#6366F1"/>


<path d="M16 0V1.33333H30.6667V0V-1.33333H16V0ZM46.6667 16H45.3333V30.6667H46.6667H48V16H46.6667ZM30.6667 46.6667V45.3333H16V46.6667V48H30.6667V46.6667ZM0 30.6667H1.33333V16H0H-1.33333V30.6667H0ZM16 46.6667V45.3333C7.89983 45.3333 1.33333 38.7668 1.33333 30.6667H0H-1.33333C-1.33333 40.2396 6.42708 48 16 48V46.6667ZM46.6667 30.6667H45.3333C45.3333 38.7668 38.7668 45.3333 30.6667 45.3333V46.6667V48C40.2396 48 48 40.2396 48 30.6667H46.6667ZM30.6667 0V1.33333C38.7668 1.33333 45.3333 7.89982 45.3333 16H46.6667H48C48 6.42707 40.2396 -1.33333 30.6667 -1.33333V0ZM16 0V-1.33333C6.42707 -1.33333 -1.33333 6.42708 -1.33333 16H0H1.33333C1.33333 7.89983 7.89982 1.33333 16 1.33333V0Z" fill="rgba(255,255,255,0.15)" mask="url(#path-1-inside-1_77_2266)"/>


<path d="M33.3333 18.3333L24.8333 26.8333L19.8333 21.8333L13.3333 28.3333" stroke="white" stroke-width="2" stroke-linecap="round" stroke-linejoin="round"/>
<path d="M27.3333 18.3333H33.3333V24.3333" stroke="white" stroke-width="2" stroke-linecap="round" stroke-linejoin="round"/>

</svg>